<?xml version="1.0" encoding="utf-8"?>
<!-- Generator: Adobe Illustrator 22.0.1, SVG Export Plug-In . SVG Version: 6.00 Build 0)  -->
<svg version="1.1" id="Layer_1" xmlns="http://www.w3.org/2000/svg" xmlns:xlink="http://www.w3.org/1999/xlink" x="0px" y="0px"
	 viewBox="0 0 883.3 255.8" style="enable-background:new 0 0 883.3 255.8;" xml:space="preserve">
<g>
	<g>
		<path d="M615.4,79.3c-18.3,0-34.8,7.4-46.8,19.4h93.6C650.2,86.8,633.7,79.3,615.4,79.3z"/>
		<path d="M549.2,145.5l0,66.2l19.4,0v-113C556.6,110.7,549.2,127.3,549.2,145.5z"/>
		<path d="M681.6,145.5l0,66.2l-19.4,0v-113C674.2,110.7,681.6,127.3,681.6,145.5z"/>
	</g>
	<polygon points="568.6,98.7 568.6,98.7 568.6,98.7 	"/>
	<polygon points="568.6,211.7 568.6,211.7 568.6,211.7 	"/>
	<polygon points="769.6,103.5 769.6,103.5 769.6,103.5 	"/>
	<polygon points="769.6,197.2 769.6,197.2 769.6,197.2 	"/>
	<polygon points="258.7,98.7 258.7,98.7 258.7,98.7 	"/>
	<polygon points="258.7,192.3 258.7,192.3 258.7,192.3 	"/>
	<g>
		<path d="M438.8,211.7c18.3,0,34.8-7.4,46.8-19.4H392C403.9,204.3,420.5,211.7,438.8,211.7z"/>
		<path d="M438.8,79.3c-18.3,0-34.8,7.4-46.8,19.4h93.6C473.6,86.8,457.1,79.3,438.8,79.3z"/>
		<path d="M372.6,145.5c0,18.3,7.4,34.8,19.4,46.8V98.7C380,110.7,372.6,127.3,372.6,145.5z"/>
		<path d="M485.6,98.7v93.6c12-12,19.4-28.5,19.4-46.8S497.6,110.7,485.6,98.7z"/>
		<polygon points="392,98.7 392,98.7 392,98.7 		"/>
		<polygon points="392,192.3 392,192.3 392,192.3 		"/>
	</g>
	<path d="M706.1,168.7l0-69.9h78c-12-12-28.5-19.4-46.8-19.4c-11.3,0-21.9,2.8-31.2,7.8l0-31.5l-19.4,0l0,43c0,0,0,0,0,0v113l19.4,0
		L706.1,168.7C706.1,168.7,706.1,168.7,706.1,168.7z"/>
	<g>
		<path d="M235.1,145.5l0,109.8l19.4,0V98.7C242.5,110.7,235.1,127.3,235.1,145.5z"/>
		<path d="M301.3,211.7c18.3,0,34.8-7.4,46.8-19.4h-93.6C266.5,204.3,283,211.7,301.3,211.7z"/>
		<path d="M301.3,79.3c-18.3,0-34.8,7.4-46.8,19.4h93.6C336.1,86.8,319.6,79.3,301.3,79.3z"/>
		<path d="M348.1,98.7v93.6c12-12,19.4-28.5,19.4-46.8S360.1,110.7,348.1,98.7z"/>
	</g>
	<g>
		<g>
			<path d="M68.2,98.7H115c-12,12-28.5,19.4-46.8,19.4H21.4C33.4,106.1,49.9,98.7,68.2,98.7z"/>
		</g>
		<path d="M21.4,192.3v-74.2C9.4,130.1,2,146.6,2,164.9l0,46.8h6.7l0,0c0,0,49.3,0,59.5,0c18.3,0,34.8-7.4,46.8-19.4H21.4z"/>
		<path d="M115,19.5v79.2c10.1-10.1,16.4-24.1,16.4-39.6S125.1,29.7,115,19.5z"/>
		<path d="M35.8,19.5H115C104.9,9.4,90.9,3.1,75.4,3.1S45.9,9.4,35.8,19.5z"/>
		<g>
			<path d="M35.8,19.5C25.6,29.7,19.4,43.7,19.4,59.1h16.4V19.5z"/>
		</g>
	</g>
	<g>
		<rect x="155.6" y="98.7" width="41.4" height="19.4"/>
		<path d="M162.8,211.7c18.7,0,35.6-7.4,47.8-19.4H115C127.2,204.3,144.1,211.7,162.8,211.7z"/>
		<path d="M210.6,98.7v93.6c12-12,19.4-28.5,19.4-46.8S222.6,110.7,210.6,98.7z"/>
		<path d="M210.6,19.5v79.2C220.8,88.6,227,74.6,227,59.1S220.8,29.7,210.6,19.5z"/>
		<path d="M131.4,19.5h79.2C200.5,9.4,186.5,3.1,171,3.1C155.5,3.1,141.5,9.4,131.4,19.5z"/>
		<g>
			<path d="M131.4,19.5C121.3,29.7,115,43.7,115,59.1h16.4V19.5z"/>
		</g>
	</g>
	<g>
		<polygon points="519.6,187.2 566.4,79.3 545.3,79.3 532.2,109.5 532.2,109.5 487.7,211.7 508.9,211.7 519.6,187.2 		"/>
	</g>
	<polygon points="768.9,197.2 768.9,197.2 768.9,197.2 	"/>
	<g>
		<path d="M815.7,211.7c18.3,0,34.8-7.4,46.8-19.4h-93.6C780.9,204.3,797.4,211.7,815.7,211.7z"/>
		<path d="M749.5,145.5c0,18.3,7.4,34.8,19.4,46.8v-46.8L749.5,145.5z"/>
		<g>
			<path d="M815.7,79.3h-46.8c12,12,28.5,19.4,46.8,19.4h46.8C850.5,86.8,834,79.3,815.7,79.3z"/>
		</g>
		<path d="M862.5,98.7v93.6c12-12,19.4-28.5,19.4-46.8S874.5,110.7,862.5,98.7z"/>
		<path d="M860.3,3.1H755.4v0l-5.9,0c0,0,0,19.8,0,29.4c0,18.3,7.4,34.8,19.4,46.8V22.5h91.4V3.1z"/>
	</g>
</g>
</svg>
